<mxfile host="app.diagrams.net" modified="2022-11-03T13:38:20.526Z" agent="5.0 (Linux; Android 6.0.1; SM-T375S) AppleWebKit/537.36 (KHTML, like Gecko) Chrome/106.0.0.0 Safari/537.36" etag="JRF6dSD5ygiiAmiEAEOY" version="20.5.1" type="github">
  <diagram id="cW51fluPFjr-2HIyRorl" name="Page-1">
    <mxGraphModel dx="541" dy="770" grid="0" gridSize="10" guides="1" tooltips="1" connect="1" arrows="1" fold="1" page="0" pageScale="1" pageWidth="827" pageHeight="1169" math="0" shadow="0">
      <root>
        <mxCell id="0" />
        <mxCell id="1" parent="0" />
        <mxCell id="KM45ytu7oQBloAx4jFiO-9" value="" style="rounded=0;html=1;jettySize=auto;orthogonalLoop=1;fontSize=11;endArrow=block;endFill=0;endSize=8;strokeWidth=1;shadow=0;labelBackgroundColor=none;edgeStyle=orthogonalEdgeStyle;" edge="1" parent="1" source="KM45ytu7oQBloAx4jFiO-10" target="KM45ytu7oQBloAx4jFiO-13">
          <mxGeometry relative="1" as="geometry" />
        </mxCell>
        <mxCell id="KM45ytu7oQBloAx4jFiO-10" value="Lamp doesn&#39;t work" style="rounded=1;whiteSpace=wrap;html=1;fontSize=12;glass=0;strokeWidth=1;shadow=0;" vertex="1" parent="1">
          <mxGeometry x="322" y="195" width="120" height="40" as="geometry" />
        </mxCell>
        <mxCell id="KM45ytu7oQBloAx4jFiO-11" value="Yes" style="rounded=0;html=1;jettySize=auto;orthogonalLoop=1;fontSize=11;endArrow=block;endFill=0;endSize=8;strokeWidth=1;shadow=0;labelBackgroundColor=none;edgeStyle=orthogonalEdgeStyle;" edge="1" parent="1" source="KM45ytu7oQBloAx4jFiO-13" target="KM45ytu7oQBloAx4jFiO-17">
          <mxGeometry y="20" relative="1" as="geometry">
            <mxPoint as="offset" />
          </mxGeometry>
        </mxCell>
        <mxCell id="KM45ytu7oQBloAx4jFiO-12" value="No" style="edgeStyle=orthogonalEdgeStyle;rounded=0;html=1;jettySize=auto;orthogonalLoop=1;fontSize=11;endArrow=block;endFill=0;endSize=8;strokeWidth=1;shadow=0;labelBackgroundColor=none;" edge="1" parent="1" source="KM45ytu7oQBloAx4jFiO-13" target="KM45ytu7oQBloAx4jFiO-14">
          <mxGeometry y="10" relative="1" as="geometry">
            <mxPoint as="offset" />
          </mxGeometry>
        </mxCell>
        <mxCell id="KM45ytu7oQBloAx4jFiO-13" value="Lamp&lt;br&gt;plugged in?" style="rhombus;whiteSpace=wrap;html=1;shadow=0;fontFamily=Helvetica;fontSize=12;align=center;strokeWidth=1;spacing=6;spacingTop=-4;" vertex="1" parent="1">
          <mxGeometry x="332" y="285" width="100" height="80" as="geometry" />
        </mxCell>
        <mxCell id="KM45ytu7oQBloAx4jFiO-14" value="Plug in lamp" style="rounded=1;whiteSpace=wrap;html=1;fontSize=12;glass=0;strokeWidth=1;shadow=0;" vertex="1" parent="1">
          <mxGeometry x="482" y="305" width="120" height="40" as="geometry" />
        </mxCell>
        <mxCell id="KM45ytu7oQBloAx4jFiO-15" value="No" style="rounded=0;html=1;jettySize=auto;orthogonalLoop=1;fontSize=11;endArrow=block;endFill=0;endSize=8;strokeWidth=1;shadow=0;labelBackgroundColor=none;edgeStyle=orthogonalEdgeStyle;" edge="1" parent="1" source="KM45ytu7oQBloAx4jFiO-17" target="KM45ytu7oQBloAx4jFiO-18">
          <mxGeometry x="0.3333" y="20" relative="1" as="geometry">
            <mxPoint as="offset" />
          </mxGeometry>
        </mxCell>
        <mxCell id="KM45ytu7oQBloAx4jFiO-16" value="Yes" style="edgeStyle=orthogonalEdgeStyle;rounded=0;html=1;jettySize=auto;orthogonalLoop=1;fontSize=11;endArrow=block;endFill=0;endSize=8;strokeWidth=1;shadow=0;labelBackgroundColor=none;" edge="1" parent="1" source="KM45ytu7oQBloAx4jFiO-17" target="KM45ytu7oQBloAx4jFiO-19">
          <mxGeometry y="10" relative="1" as="geometry">
            <mxPoint as="offset" />
          </mxGeometry>
        </mxCell>
        <mxCell id="KM45ytu7oQBloAx4jFiO-17" value="Bulb&lt;br&gt;burned out?" style="rhombus;whiteSpace=wrap;html=1;shadow=0;fontFamily=Helvetica;fontSize=12;align=center;strokeWidth=1;spacing=6;spacingTop=-4;" vertex="1" parent="1">
          <mxGeometry x="332" y="405" width="100" height="80" as="geometry" />
        </mxCell>
        <mxCell id="KM45ytu7oQBloAx4jFiO-18" value="Repair Lamp" style="rounded=1;whiteSpace=wrap;html=1;fontSize=12;glass=0;strokeWidth=1;shadow=0;" vertex="1" parent="1">
          <mxGeometry x="322" y="545" width="120" height="40" as="geometry" />
        </mxCell>
        <mxCell id="KM45ytu7oQBloAx4jFiO-19" value="Replace Bulb" style="rounded=1;whiteSpace=wrap;html=1;fontSize=12;glass=0;strokeWidth=1;shadow=0;" vertex="1" parent="1">
          <mxGeometry x="482" y="425" width="120" height="40" as="geometry" />
        </mxCell>
        <mxCell id="KM45ytu7oQBloAx4jFiO-20" value="" style="ellipse;whiteSpace=wrap;html=1;fontSize=16;" vertex="1" parent="1">
          <mxGeometry x="320" y="93" width="124" height="68" as="geometry" />
        </mxCell>
      </root>
    </mxGraphModel>
  </diagram>
</mxfile>
